<svg xmlns="http://www.w3.org/2000/svg" viewBox="0 0 256 256" shape-rendering="crispEdges">
  <title>PixelPaladin · Pp monogram · light-bg variant</title>
  
  <path d="M16 0 H240 Q256 0 256 16 V240 Q256 256 240 256 H16 Q0 256 0 240 V16 Q0 0 16 0 Z" fill="#f7f6f5"></path>
  
  <g fill="#ebeae7">
    <rect x="16" y="16" width="4" height="4"></rect><rect x="48" y="16" width="4" height="4"></rect><rect x="80" y="16" width="4" height="4"></rect><rect x="112" y="16" width="4" height="4"></rect><rect x="144" y="16" width="4" height="4"></rect><rect x="176" y="16" width="4" height="4"></rect><rect x="208" y="16" width="4" height="4"></rect>
    <rect x="16" y="240" width="4" height="4"></rect><rect x="48" y="240" width="4" height="4"></rect><rect x="80" y="240" width="4" height="4"></rect><rect x="112" y="240" width="4" height="4"></rect><rect x="144" y="240" width="4" height="4"></rect><rect x="176" y="240" width="4" height="4"></rect><rect x="208" y="240" width="4" height="4"></rect>
  </g>
  
  <rect x="48" y="56" width="24" height="144" fill="#e51b10"></rect>
  <rect x="72" y="56" width="48" height="24" fill="#e51b10"></rect>
  <rect x="120" y="56" width="16" height="48" fill="#e51b10"></rect>
  <rect x="72" y="104" width="48" height="16" fill="#e51b10"></rect>
  
  <rect x="152" y="104" width="16" height="112" fill="#111110"></rect>
  <rect x="168" y="104" width="40" height="16" fill="#111110"></rect>
  <rect x="208" y="104" width="16" height="48" fill="#111110"></rect>
  <rect x="168" y="152" width="40" height="16" fill="#111110"></rect>
  
  <rect x="52" y="60" width="8" height="8" fill="#ff8780"></rect>
  <rect x="76" y="60" width="8" height="8" fill="#ff8780"></rect>
  <rect x="48" y="192" width="24" height="8" fill="#9a0a03"></rect>
</svg>