<svg xmlns="http://www.w3.org/2000/svg" viewBox="0 0 560 128" shape-rendering="geometricPrecision">
  <title>PixelPaladin wordmark</title>
  
  <g transform="translate(16 16) scale(0.375)" shape-rendering="crispEdges">
    <path d="M16 0 H240 Q256 0 256 16 V240 Q256 256 240 256 H16 Q0 256 0 240 V16 Q0 0 16 0 Z" fill="#111110"></path>
    <g fill="#1a1917">
      <rect x="16" y="16" width="4" height="4"></rect><rect x="48" y="16" width="4" height="4"></rect><rect x="80" y="16" width="4" height="4"></rect><rect x="112" y="16" width="4" height="4"></rect><rect x="144" y="16" width="4" height="4"></rect><rect x="176" y="16" width="4" height="4"></rect><rect x="208" y="16" width="4" height="4"></rect>
      <rect x="16" y="240" width="4" height="4"></rect><rect x="48" y="240" width="4" height="4"></rect><rect x="80" y="240" width="4" height="4"></rect><rect x="112" y="240" width="4" height="4"></rect><rect x="144" y="240" width="4" height="4"></rect><rect x="176" y="240" width="4" height="4"></rect><rect x="208" y="240" width="4" height="4"></rect>
    </g>
    <rect x="48" y="56" width="24" height="144" fill="#e51b10"></rect>
    <rect x="72" y="56" width="48" height="24" fill="#e51b10"></rect>
    <rect x="120" y="56" width="16" height="48" fill="#e51b10"></rect>
    <rect x="72" y="104" width="48" height="16" fill="#e51b10"></rect>
    <rect x="152" y="104" width="16" height="112" fill="#f7f6f5"></rect>
    <rect x="168" y="104" width="40" height="16" fill="#f7f6f5"></rect>
    <rect x="208" y="104" width="16" height="48" fill="#f7f6f5"></rect>
    <rect x="168" y="152" width="40" height="16" fill="#f7f6f5"></rect>
    <rect x="52" y="60" width="8" height="8" fill="#ff8780"></rect>
    <rect x="76" y="60" width="8" height="8" fill="#ff8780"></rect>
    <rect x="48" y="192" width="24" height="8" fill="#9a0a03"></rect>
  </g>
  
  <text x="132" y="58" font-family="Unbounded, &#39;Space Grotesk&#39;, system-ui, sans-serif" font-weight="800" font-size="36" letter-spacing="-1" fill="#111110">Pixel<tspan fill="#e51b10">Paladin</tspan></text>
  <text x="132" y="92" font-family="&#39;JetBrains Mono&#39;, ui-monospace, monospace" font-weight="500" font-size="13" letter-spacing="4" fill="#56544e">TOOLS · FOR · HOBBYISTS</text>
</svg>